<mxfile host="Electron" agent="Mozilla/5.0 (Windows NT 10.0; Win64; x64) AppleWebKit/537.36 (KHTML, like Gecko) draw.io/27.0.9 Chrome/134.0.6998.205 Electron/35.4.0 Safari/537.36" version="27.0.9">
  <diagram name="P치gina-1" id="mBOR_W_KqZEb1eNvgwfq">
    <mxGraphModel dx="1025" dy="528" grid="1" gridSize="10" guides="1" tooltips="1" connect="1" arrows="1" fold="1" page="1" pageScale="1" pageWidth="827" pageHeight="1169" math="0" shadow="0">
      <root>
        <mxCell id="0" />
        <mxCell id="1" parent="0" />
        <mxCell id="VdSNLCkU5RJ3n_qXY93L-29" style="edgeStyle=orthogonalEdgeStyle;rounded=0;orthogonalLoop=1;jettySize=auto;html=1;exitX=0.5;exitY=1;exitDx=0;exitDy=0;entryX=0.5;entryY=0;entryDx=0;entryDy=0;" parent="1" source="VdSNLCkU5RJ3n_qXY93L-1" target="VdSNLCkU5RJ3n_qXY93L-2" edge="1">
          <mxGeometry relative="1" as="geometry" />
        </mxCell>
        <mxCell id="VdSNLCkU5RJ3n_qXY93L-1" value="&lt;font style=&quot;font-size: 12px;&quot;&gt;Visualizar Progresso nos H치bitos&lt;/font&gt;" style="ellipse;whiteSpace=wrap;html=1;" parent="1" vertex="1">
          <mxGeometry x="337.5" y="110" width="80" height="80" as="geometry" />
        </mxCell>
        <mxCell id="VdSNLCkU5RJ3n_qXY93L-16" value="" style="edgeStyle=orthogonalEdgeStyle;rounded=0;orthogonalLoop=1;jettySize=auto;html=1;entryX=0;entryY=0;entryDx=60;entryDy=0;entryPerimeter=0;" parent="1" source="VdSNLCkU5RJ3n_qXY93L-2" target="VdSNLCkU5RJ3n_qXY93L-13" edge="1">
          <mxGeometry relative="1" as="geometry">
            <Array as="points">
              <mxPoint x="390" y="375" />
              <mxPoint x="390" y="375" />
            </Array>
            <mxPoint x="377.5" y="465" as="targetPoint" />
          </mxGeometry>
        </mxCell>
        <mxCell id="VdSNLCkU5RJ3n_qXY93L-2" value="&lt;div&gt;&lt;div&gt;&quot;H치bito: jogar (Semanal)&lt;/div&gt;&lt;div&gt;Per칤odo: 2025-05-01 at칠 2025-05-31&lt;/div&gt;&lt;div&gt;Progresso: 游릴拘럭샢拘럭샢 20.00% (1/5 registros previstos)&lt;/div&gt;&lt;div&gt;&lt;br&gt;&lt;/div&gt;&lt;div&gt;Deseja adicionar progresso para este h치bito? (s/n): &quot;&lt;/div&gt;&lt;/div&gt;" style="shape=document;whiteSpace=wrap;html=1;boundedLbl=1;align=left;" parent="1" vertex="1">
          <mxGeometry x="217.5" y="225" width="320" height="130" as="geometry" />
        </mxCell>
        <mxCell id="VdSNLCkU5RJ3n_qXY93L-19" style="edgeStyle=orthogonalEdgeStyle;rounded=0;orthogonalLoop=1;jettySize=auto;html=1;exitX=0;exitY=0.5;exitDx=0;exitDy=0;entryX=1;entryY=0.5;entryDx=0;entryDy=0;" parent="1" source="VdSNLCkU5RJ3n_qXY93L-10" target="VdSNLCkU5RJ3n_qXY93L-21" edge="1">
          <mxGeometry relative="1" as="geometry">
            <mxPoint x="320" y="585" as="targetPoint" />
          </mxGeometry>
        </mxCell>
        <mxCell id="VdSNLCkU5RJ3n_qXY93L-26" value="" style="edgeStyle=orthogonalEdgeStyle;rounded=0;orthogonalLoop=1;jettySize=auto;html=1;" parent="1" source="VdSNLCkU5RJ3n_qXY93L-10" edge="1">
          <mxGeometry relative="1" as="geometry">
            <mxPoint x="470" y="545" as="targetPoint" />
          </mxGeometry>
        </mxCell>
        <mxCell id="VdSNLCkU5RJ3n_qXY93L-10" value="D칤gito de escolha 칠 igual a 1?" style="rhombus;whiteSpace=wrap;html=1;" parent="1" vertex="1">
          <mxGeometry x="350" y="505" width="80" height="80" as="geometry" />
        </mxCell>
        <mxCell id="VdSNLCkU5RJ3n_qXY93L-15" value="" style="edgeStyle=orthogonalEdgeStyle;rounded=0;orthogonalLoop=1;jettySize=auto;html=1;" parent="1" source="VdSNLCkU5RJ3n_qXY93L-13" target="VdSNLCkU5RJ3n_qXY93L-10" edge="1">
          <mxGeometry relative="1" as="geometry" />
        </mxCell>
        <mxCell id="sJ3DrSPN8taibMH8isZk-3" value="" style="edgeStyle=orthogonalEdgeStyle;rounded=0;orthogonalLoop=1;jettySize=auto;html=1;" edge="1" parent="1" source="VdSNLCkU5RJ3n_qXY93L-21" target="sJ3DrSPN8taibMH8isZk-2">
          <mxGeometry relative="1" as="geometry" />
        </mxCell>
        <mxCell id="VdSNLCkU5RJ3n_qXY93L-21" value="&lt;div&gt;&quot;D칤gito inv치lido. Digite-o novamente&lt;span style=&quot;background-color: transparent; color: light-dark(rgb(0, 0, 0), rgb(255, 255, 255));&quot;&gt;&quot;&lt;/span&gt;&lt;/div&gt;" style="shape=document;whiteSpace=wrap;html=1;boundedLbl=1;" parent="1" vertex="1">
          <mxGeometry x="170" y="520" width="150" height="50" as="geometry" />
        </mxCell>
        <mxCell id="sJ3DrSPN8taibMH8isZk-1" value="" style="group" vertex="1" connectable="0" parent="1">
          <mxGeometry x="320" y="405" width="120" height="60" as="geometry" />
        </mxCell>
        <mxCell id="VdSNLCkU5RJ3n_qXY93L-13" value="" style="verticalLabelPosition=bottom;verticalAlign=top;html=1;shape=card;whiteSpace=wrap;size=20;arcSize=12;container=1;" parent="sJ3DrSPN8taibMH8isZk-1" vertex="1">
          <mxGeometry x="10" width="100" height="60" as="geometry" />
        </mxCell>
        <mxCell id="VdSNLCkU5RJ3n_qXY93L-17" value="D칣gito de Escolha" style="text;html=1;align=center;verticalAlign=middle;resizable=0;points=[];autosize=1;strokeColor=none;fillColor=none;" parent="sJ3DrSPN8taibMH8isZk-1" vertex="1">
          <mxGeometry y="15" width="120" height="30" as="geometry" />
        </mxCell>
        <mxCell id="sJ3DrSPN8taibMH8isZk-2" value="Menu H치bitos" style="ellipse;whiteSpace=wrap;html=1;" vertex="1" parent="1">
          <mxGeometry x="205" y="610" width="80" height="80" as="geometry" />
        </mxCell>
      </root>
    </mxGraphModel>
  </diagram>
</mxfile>
